<svg width="311" height="226" viewBox="0 0 311 226" fill="none" xmlns="http://www.w3.org/2000/svg">
<rect width="310.534" height="226" rx="20" fill="#EBF7FF"/>
<g clip-path="url(#clip0_273_92)">
<path d="M247.457 40.7577V36.5525C247.457 35.0064 246.2 33.7491 244.654 33.7491H240.448C240.448 31.4307 238.562 29.5439 236.243 29.5439C233.925 29.5439 232.038 31.4307 232.038 33.7491H227.833C226.287 33.7491 225.03 35.0064 225.03 36.5525V41.9926L225.953 42.3276C227.077 42.7341 227.833 43.7938 227.833 44.9628C227.833 46.1319 227.077 47.1916 225.953 47.5981L225.03 47.9331V53.3731C225.03 54.9192 226.287 56.1766 227.833 56.1766H233.273L233.608 55.2529C234.015 54.1287 235.074 53.3731 236.243 53.3731C237.412 53.3731 238.472 54.1287 238.879 55.2529L239.214 56.1766H244.654C246.2 56.1766 247.457 54.9192 247.457 53.3731V49.168C249.776 49.168 251.662 47.2813 251.662 44.9628C251.662 42.6444 249.776 40.7577 247.457 40.7577ZM247.457 46.3646H244.654L244.649 53.3731H241.082C240.085 51.6631 238.248 50.5697 236.243 50.5697C234.239 50.5697 232.401 51.6631 231.405 53.3731H227.833V49.8016C229.543 48.8049 230.636 46.9673 230.636 44.9628C230.636 42.9584 229.543 41.1207 227.833 40.1241V36.5525H234.842V33.7491C234.842 33.3774 234.989 33.0209 235.252 32.7581C235.515 32.4952 235.872 32.3476 236.243 32.3476C236.615 32.3476 236.972 32.4952 237.234 32.7581C237.497 33.0209 237.645 33.3774 237.645 33.7491V36.5525H244.654V43.5611H247.457C247.829 43.5612 248.185 43.7089 248.448 43.9718C248.711 44.2346 248.859 44.5911 248.859 44.9628C248.859 45.3346 248.711 45.6911 248.448 45.9539C248.185 46.2168 247.829 46.3645 247.457 46.3646Z" fill="#C3D4E4"/>
</g>
<path d="M0 24.1528H188.046C198.05 24.1528 206.16 32.263 206.16 42.2673V42.2673C206.16 52.2717 198.05 60.3818 188.046 60.3818H0V24.1528Z" fill="white"/>
<rect x="265.679" y="31.0532" width="25.0153" height="25.0153" rx="3" fill="#C3D4E4"/>
<rect x="268.267" y="33.6411" width="14.6641" height="19.8397" rx="3" fill="#E6F5FF"/>
<rect x="44.855" y="69.8701" width="207.023" height="138.878" rx="10" fill="white"/>
<rect x="56.0687" y="141.466" width="185" height="30" rx="5" fill="#E6ECF2"/>
<rect x="56.0687" y="103" width="185" height="30" rx="5" fill="#65E3FF"/>
<path d="M95.7124 113.056V115.728H97.5524V117.232H95.7124V121.904C95.7124 122.096 95.7444 122.24 95.8404 122.352C95.9364 122.448 96.0644 122.496 96.2564 122.496H97.3444V124H95.9524C95.2324 124 94.7044 123.808 94.3684 123.424C94.0484 123.072 93.8884 122.576 93.8884 121.904V117.232H92.4004V115.728H93.8884V113.808L95.7124 113.056ZM102.821 115.504C103.221 115.504 103.573 115.568 103.861 115.712V117.536C103.445 117.408 103.061 117.36 102.677 117.36C102.197 117.36 101.765 117.536 101.381 117.92C100.933 118.352 100.725 118.912 100.725 119.616V124H98.9173V115.728H100.725V116.912C100.949 116.496 101.205 116.176 101.509 115.952C101.877 115.648 102.309 115.504 102.821 115.504ZM108.662 115.504C109.878 115.504 110.79 115.808 111.366 116.416C111.878 116.944 112.134 117.712 112.134 118.72V124H110.438V122.912C110.118 123.328 109.718 123.632 109.254 123.856C108.726 124.096 108.102 124.224 107.382 124.224C106.518 124.224 105.846 124 105.35 123.568C104.838 123.12 104.582 122.56 104.582 121.872C104.582 120.944 104.934 120.224 105.67 119.728C106.342 119.248 107.286 118.992 108.502 118.96L110.31 118.912V118.592C110.31 117.504 109.718 116.976 108.534 116.976C108.022 116.976 107.622 117.056 107.318 117.248C106.966 117.456 106.726 117.776 106.63 118.208L104.822 118.064C104.998 117.152 105.446 116.48 106.166 116.064C106.774 115.68 107.606 115.504 108.662 115.504ZM110.31 120.224L108.63 120.272C107.174 120.304 106.454 120.816 106.454 121.808C106.454 122.096 106.566 122.336 106.822 122.528C107.078 122.72 107.398 122.832 107.798 122.832C108.502 122.832 109.094 122.624 109.574 122.224C110.054 121.808 110.31 121.28 110.31 120.64V120.224ZM118.33 115.504C120.394 115.504 121.434 116.624 121.434 118.896V124H119.61V119.056C119.61 117.696 118.986 117.024 117.738 117.024C117.29 117.024 116.89 117.184 116.554 117.504C116.17 117.856 115.946 118.368 115.882 119.024V124H114.058V115.728H115.882V116.688C116.202 116.304 116.57 116 116.97 115.808C117.386 115.6 117.834 115.504 118.33 115.504ZM126.475 115.504C128.651 115.504 129.851 116.368 130.043 118.128H128.267C128.139 117.712 127.947 117.408 127.691 117.248C127.419 117.072 127.003 116.992 126.443 116.992C125.963 116.992 125.595 117.056 125.355 117.2C125.067 117.344 124.939 117.568 124.939 117.888C124.939 118.144 125.147 118.384 125.595 118.576C125.867 118.688 126.411 118.848 127.243 119.056C128.171 119.28 128.875 119.536 129.323 119.84C129.979 120.256 130.315 120.848 130.315 121.584C130.315 123.344 129.067 124.224 126.587 124.224C124.283 124.224 123.051 123.248 122.875 121.312H124.651C124.747 121.84 124.939 122.208 125.211 122.432C125.483 122.624 125.915 122.736 126.523 122.736C127.803 122.736 128.443 122.384 128.443 121.712C128.443 121.328 128.203 121.024 127.723 120.8C127.467 120.672 126.923 120.528 126.091 120.336C125.115 120.112 124.427 119.872 124.027 119.616C123.387 119.216 123.067 118.656 123.067 117.936C123.067 117.168 123.371 116.576 124.011 116.16C124.635 115.712 125.451 115.504 126.475 115.504ZM132.993 112.352C133.345 112.352 133.649 112.464 133.889 112.688C134.113 112.912 134.241 113.2 134.241 113.552C134.241 113.904 134.113 114.208 133.873 114.432C133.633 114.656 133.345 114.768 132.993 114.768C132.641 114.768 132.353 114.656 132.113 114.432C131.873 114.192 131.761 113.904 131.761 113.552C131.761 113.2 131.873 112.912 132.113 112.688C132.353 112.464 132.641 112.352 132.993 112.352ZM132.081 115.728H133.905V124H132.081V115.728ZM142.055 112.352H143.879V124H142.183V123.12C141.607 123.856 140.775 124.224 139.687 124.224C138.455 124.224 137.495 123.792 136.807 122.928C136.167 122.128 135.847 121.088 135.847 119.824C135.847 118.608 136.151 117.6 136.791 116.8C137.463 115.936 138.407 115.504 139.591 115.504C140.551 115.504 141.367 115.952 142.055 116.864V112.352ZM140.023 116.976C139.191 116.976 138.599 117.248 138.215 117.792C137.879 118.256 137.719 118.928 137.719 119.824C137.719 120.72 137.863 121.408 138.183 121.888C138.551 122.464 139.143 122.752 139.959 122.752C140.663 122.752 141.223 122.464 141.607 121.904C141.943 121.392 142.119 120.72 142.119 119.92V119.792C142.119 118.912 141.895 118.208 141.479 117.696C141.095 117.216 140.599 116.976 140.023 116.976ZM149.312 115.504C150.672 115.504 151.712 115.952 152.432 116.88C153.088 117.712 153.424 118.88 153.424 120.368H147.232C147.296 121.136 147.504 121.728 147.856 122.128C148.208 122.528 148.72 122.736 149.376 122.736C149.936 122.736 150.384 122.608 150.736 122.352C151.008 122.144 151.248 121.808 151.472 121.344H153.296C153.104 122.112 152.72 122.768 152.144 123.28C151.408 123.904 150.496 124.224 149.392 124.224C148.16 124.224 147.184 123.84 146.464 123.088C145.696 122.304 145.312 121.232 145.312 119.856C145.312 118.624 145.664 117.6 146.4 116.768C147.104 115.92 148.08 115.504 149.312 115.504ZM149.36 116.992C148.752 116.992 148.288 117.152 147.936 117.504C147.6 117.84 147.376 118.336 147.264 118.992H151.52C151.36 117.648 150.64 116.992 149.36 116.992ZM158.774 115.504C159.174 115.504 159.526 115.568 159.814 115.712V117.536C159.398 117.408 159.014 117.36 158.63 117.36C158.15 117.36 157.718 117.536 157.334 117.92C156.886 118.352 156.678 118.912 156.678 119.616V124H154.87V115.728H156.678V116.912C156.902 116.496 157.158 116.176 157.462 115.952C157.83 115.648 158.262 115.504 158.774 115.504Z" fill="white"/>
<path d="M177.195 126.473L191.861 134.893H191.861L193.487 135.827C193.52 135.846 193.547 135.875 193.564 135.908C193.581 135.942 193.587 135.979 193.583 136.016C193.578 136.053 193.563 136.089 193.538 136.117C193.513 136.146 193.48 136.168 193.443 136.179C193.443 136.179 193.443 136.179 193.443 136.179L186.715 138.116L186.099 138.293L186.421 138.847L190.679 146.182C190.761 146.322 190.813 146.477 190.834 146.637C190.856 146.797 190.845 146.959 190.803 147.115C190.761 147.271 190.688 147.418 190.589 147.546C190.49 147.675 190.366 147.783 190.225 147.864L190.225 147.864L186.001 150.289C185.716 150.453 185.376 150.497 185.057 150.412C184.738 150.327 184.467 150.12 184.303 149.837C184.303 149.837 184.303 149.837 184.303 149.837L180.045 142.502L179.726 141.953L179.267 142.392L174.216 147.218L174.216 147.218C174.188 147.244 174.153 147.263 174.114 147.27C174.076 147.277 174.036 147.272 174 147.257C173.965 147.242 173.935 147.217 173.914 147.185C173.893 147.154 173.882 147.117 173.882 147.08V147.08V124.907C173.882 124.907 173.882 124.907 173.882 124.907C173.882 124.874 173.891 124.841 173.907 124.812C173.924 124.783 173.949 124.758 173.979 124.741L173.979 124.741C173.992 124.733 174.022 124.719 174.058 124.715C174.086 124.712 174.129 124.713 174.192 124.749L174.192 124.749L177.195 126.473L177.195 126.473Z" fill="#808895" stroke="white"/>
<path d="M64.6946 111.965C64.6946 110.328 66.0221 109 67.6598 109H80.7065C82.3441 109 83.6717 110.328 83.6717 111.965V125.012C83.6717 126.65 82.3441 127.977 80.7065 127.977H67.6598C66.0221 127.977 64.6946 126.65 64.6946 125.012V111.965Z" fill="#65E3FF"/>
<path d="M82.2484 124.419C82.2484 125.729 81.1864 126.791 79.8763 126.791H74.1831L74.1831 110.423L80.4693 110.423C81.4519 110.423 82.2484 111.22 82.2484 112.202L82.2484 124.419Z" fill="white"/>
<path d="M72.2915 121.632H68.2173C68.113 121.632 68.0001 121.62 67.8785 121.597C67.7598 121.571 67.641 121.532 67.5223 121.48C67.4065 121.427 67.295 121.361 67.1879 121.28C67.0807 121.196 66.9852 121.096 66.9012 120.98C66.8201 120.861 66.755 120.725 66.7057 120.572C66.6565 120.415 66.6319 120.24 66.6319 120.046V116.988C66.6319 116.884 66.6435 116.773 66.6667 116.654C66.6927 116.532 66.7318 116.414 66.7839 116.298C66.836 116.179 66.9041 116.066 66.9881 115.959C67.072 115.852 67.1719 115.758 67.2878 115.677C67.4065 115.593 67.5426 115.526 67.6961 115.477C67.8495 115.428 68.0233 115.403 68.2173 115.403H72.2915V116.532H68.2173C68.0696 116.532 67.9567 116.571 67.8785 116.65C67.8003 116.728 67.7612 116.844 67.7612 116.997V120.046C67.7612 120.191 67.8003 120.304 67.8785 120.385C67.9596 120.463 68.0725 120.502 68.2173 120.502H72.2915V121.632Z" fill="white"/>
<path d="M80.553 119.086H76.987V117.948H80.553V119.086ZM81.0612 121.632H76.987C76.8306 121.632 76.6598 121.604 76.4745 121.549C76.2892 121.494 76.1169 121.404 75.9576 121.28C75.8012 121.152 75.6695 120.989 75.5623 120.789C75.4581 120.586 75.406 120.339 75.406 120.046V115.972C75.406 115.894 75.4205 115.82 75.4494 115.751C75.4784 115.681 75.5175 115.62 75.5667 115.568C75.6188 115.516 75.6796 115.475 75.7491 115.446C75.8186 115.418 75.8939 115.403 75.975 115.403H81.0612V116.532H76.5353V120.046C76.5353 120.194 76.5744 120.307 76.6526 120.385C76.7307 120.463 76.8451 120.502 76.9957 120.502H81.0612V121.632Z" fill="#65E3FF"/>
<path d="M80.7065 108.5H67.6598C65.746 108.5 64.1946 110.051 64.1946 111.965V125.012C64.1946 126.926 65.746 128.477 67.6598 128.477H80.7065C82.6203 128.477 84.1717 126.926 84.1717 125.012V111.965C84.1717 110.051 82.6203 108.5 80.7065 108.5Z" stroke="white"/>
<path d="M58.6866 93.7701H57.0906L56.8806 92.7901C57.3846 92.8181 57.8746 92.8461 58.3366 92.8461C58.6586 92.8461 58.8266 92.6501 58.8266 92.2721V88.8841C58.1826 89.0941 57.5386 89.2901 56.8946 89.4721L56.6426 88.5061C57.3846 88.3381 58.1126 88.1421 58.8266 87.9181V84.7121H56.8806V83.7461H58.8266V81.1141H59.8486V83.7461H61.5426V84.7121H59.8486V87.5541C60.4086 87.3301 60.9686 87.0781 61.5286 86.8121V87.8201C60.9686 88.0721 60.4086 88.2961 59.8486 88.5201V92.5241C59.8486 93.3501 59.4566 93.7701 58.6866 93.7701ZM61.3606 81.8561H69.2706V82.8361H65.0146C64.8186 84.1801 64.4966 85.4121 64.0206 86.5321H68.6406V93.9101H67.6606V93.2521H63.8806V93.9101H62.9146V88.5621C62.3826 89.3461 61.7526 90.0461 61.0386 90.6621L60.5626 89.7381C62.4946 88.0581 63.6426 85.7621 64.0206 82.8361H61.3606V81.8561ZM67.6606 92.3001V87.4841H63.8806V92.3001H67.6606ZM73.6386 86.3781H75.6826V84.9641H73.0366V86.3361C73.0366 87.1761 72.9806 87.9741 72.8966 88.7301H75.6826V87.2741H73.6386V86.3781ZM72.7566 89.6541C72.4766 91.2221 72.0146 92.6361 71.3706 93.8961L70.5586 93.1681C71.5106 91.4041 72.0006 89.1221 72.0146 86.3361V81.6041H82.4026V84.9641H80.4566V86.3781H82.6546V87.2741H80.4566V88.7301H83.1166V89.6541H78.6226C78.9866 90.2981 79.4486 90.8441 79.9806 91.3201C80.6106 90.9841 81.2126 90.4661 81.7866 89.7381L82.4866 90.4241C81.9826 91.0401 81.4086 91.5441 80.7646 91.9081C81.5766 92.4261 82.5006 92.7901 83.5646 93.0141L83.0746 93.9661C80.4986 93.3221 78.6786 91.8801 77.6146 89.6541H75.7106V92.7201C76.6206 92.4961 77.4046 92.2301 78.0766 91.9361L78.2726 92.8601C77.2086 93.2521 75.9486 93.5881 74.4926 93.8821L74.2126 93.0001C74.5486 92.8741 74.7166 92.6361 74.7166 92.3001V89.6541H72.7566ZM79.4766 84.9641H76.6486V86.3781H79.4766V84.9641ZM76.6486 88.7301H79.4766V87.2741H76.6486V88.7301ZM81.3946 82.5281H73.0366V84.0541H81.3946V82.5281ZM90.6626 81.5761H96.4726V85.6221H90.6626V81.5761ZM95.4926 84.7121V82.4721H91.6566V84.7121H95.4926ZM90.1166 86.9241H97.0746V87.8481H94.0226V89.6401H96.6406V90.5501H94.0226V92.4401H97.4106V93.3921H89.5566V92.4401H92.9866V90.5501H90.4386V89.6401H92.9866V87.8481H90.1166V86.9241ZM84.8806 84.8941H86.9246V82.8641C86.3366 82.9481 85.7206 83.0321 85.0906 83.1021L84.8946 82.1501C86.6446 81.9821 88.1986 81.6881 89.5426 81.2681L89.8926 82.2201C89.2626 82.4021 88.5906 82.5561 87.8906 82.6961V84.8941H89.6966V85.8601H87.8906V86.6021C88.5486 87.2461 89.2206 87.9741 89.8926 88.7721L89.3326 89.6121C88.7726 88.7441 88.2826 88.0441 87.8906 87.5261V93.8401H86.9246V87.5261C86.4346 88.8981 85.7906 90.1301 84.9926 91.2361L84.5586 90.1161C85.6226 88.8701 86.3786 87.4561 86.8266 85.8601H84.8806V84.8941ZM105.601 81.0021C105.797 81.3661 105.993 81.7721 106.175 82.2201H111.243V83.1441H100.911V86.7421C100.855 89.7101 100.365 92.0761 99.4126 93.8681L98.6566 93.1961C99.4546 91.6421 99.8746 89.4861 99.9026 86.7421V82.2201H105.167C104.985 81.8421 104.789 81.4921 104.579 81.1701L105.601 81.0021ZM104.383 85.8041C105.055 86.1401 105.671 86.4901 106.231 86.8401C107.071 86.3501 107.841 85.7761 108.541 85.1321H102.367V84.2641H109.801V84.9921C108.947 85.9021 108.009 86.6861 107.001 87.3441C107.225 87.4841 107.435 87.6381 107.631 87.7921L107.421 88.0021H110.977V88.7861C110.403 89.8781 109.759 90.8021 109.045 91.5581L108.289 90.9561C108.877 90.3961 109.409 89.7241 109.899 88.9401H106.679V92.6781C106.679 93.5041 106.259 93.9241 105.433 93.9241H103.375L103.165 92.9721C103.837 93.0141 104.481 93.0421 105.097 93.0421C105.475 93.0421 105.671 92.8321 105.671 92.4401V88.9401H101.555V88.0021H106.539C105.811 87.4981 104.887 86.9521 103.781 86.3921L104.383 85.8041Z" fill="#808895"/>
<defs>
<clipPath id="clip0_273_92">
<rect width="27.6031" height="27.6031" fill="white" transform="translate(224.275 29.3281)"/>
</clipPath>
</defs>
</svg>
