<svg width="311" height="227" viewBox="0 0 311 227" fill="none" xmlns="http://www.w3.org/2000/svg">
<rect width="311" height="226.339" rx="20" fill="#EBF7FF"/>
<g clip-path="url(#clip0_273_77)">
<path d="M247.828 40.8184V36.607C247.828 35.0586 246.569 33.7993 245.02 33.7993H240.809C240.809 31.4774 238.919 29.5879 236.598 29.5879C234.276 29.5879 232.386 31.4774 232.386 33.7993H228.175C226.626 33.7993 225.367 35.0586 225.367 36.607V42.0552L226.292 42.3907C227.418 42.7978 228.175 43.8591 228.175 45.0299C228.175 46.2007 227.418 47.262 226.292 47.6691L225.367 48.0046V53.4528C225.367 55.0012 226.626 56.2605 228.175 56.2605H233.623L233.958 55.3353C234.365 54.2095 235.427 53.4528 236.598 53.4528C237.768 53.4528 238.83 54.2095 239.237 55.3353L239.572 56.2605H245.02C246.569 56.2605 247.828 55.0012 247.828 53.4528V49.2414C250.15 49.2414 252.04 47.3518 252.04 45.0299C252.04 42.708 250.15 40.8184 247.828 40.8184ZM247.828 46.4337H245.02L245.016 53.4528H241.444C240.445 51.7402 238.605 50.6452 236.598 50.6452C234.59 50.6452 232.75 51.7402 231.752 53.4528H228.175V49.8759C229.887 48.8778 230.982 47.0374 230.982 45.0299C230.982 43.0224 229.887 41.182 228.175 40.1839V36.607H235.194V33.7993C235.194 33.4271 235.342 33.0701 235.605 32.8068C235.868 32.5436 236.225 32.3957 236.598 32.3957C236.97 32.3957 237.327 32.5436 237.59 32.8068C237.853 33.0701 238.001 33.4271 238.001 33.7993V36.607H245.02V43.6261H247.828C248.2 43.6261 248.557 43.7741 248.821 44.0373C249.084 44.3006 249.232 44.6576 249.232 45.0299C249.232 45.4022 249.084 45.7592 248.821 46.0225C248.557 46.2857 248.2 46.4337 247.828 46.4337Z" fill="#C3D4E4"/>
</g>
<path d="M0 24.189H188.328C198.347 24.189 206.469 32.3113 206.469 42.3306V42.3306C206.469 52.35 198.347 60.4723 188.328 60.4723H0V24.189Z" fill="white"/>
<rect x="266.078" y="31.1001" width="25.0528" height="25.0528" rx="3" fill="#C3D4E4"/>
<rect x="268.669" y="33.6919" width="14.6861" height="19.8694" rx="3" fill="#E6F5FF"/>
<path d="M243.116 51.5035L257.807 59.9381H257.807L259.433 60.8717C259.466 60.891 259.493 60.9196 259.51 60.9534C259.527 60.9871 259.534 61.0249 259.529 61.0621C259.525 61.0992 259.509 61.1346 259.484 61.1636C259.459 61.1927 259.426 61.2142 259.389 61.2251C259.389 61.2251 259.389 61.2251 259.389 61.2251L252.65 63.1651L252.035 63.3424L252.356 63.8966L256.621 71.2424C256.703 71.3827 256.756 71.5375 256.777 71.698C256.798 71.8584 256.787 72.0214 256.745 72.1778C256.703 72.3341 256.63 72.4808 256.531 72.6095C256.432 72.7382 256.308 72.8464 256.166 72.9277L256.166 72.9277L251.936 75.3564C251.936 75.3564 251.936 75.3564 251.936 75.3565C251.65 75.5206 251.309 75.5651 250.99 75.48C250.671 75.3948 250.399 75.1872 250.235 74.9039C250.235 74.9039 250.235 74.9039 250.235 74.9038L245.97 67.5581L245.651 67.0091L245.192 67.4476L240.133 72.2809L240.133 72.2809C240.105 72.3075 240.07 72.3256 240.031 72.3327C239.992 72.3397 239.953 72.3353 239.917 72.32C239.881 72.3048 239.85 72.2796 239.829 72.2479C239.808 72.2162 239.797 72.1794 239.797 72.142V72.1419V49.936C239.797 49.936 239.797 49.936 239.797 49.936C239.797 49.9025 239.806 49.8694 239.823 49.8401C239.84 49.8108 239.865 49.786 239.895 49.7687L239.895 49.7686C239.909 49.7609 239.939 49.7469 239.975 49.7428C240.003 49.7397 240.046 49.7404 240.109 49.7766L240.109 49.7767L243.116 51.5035L243.116 51.5035Z" fill="#808895" stroke="white"/>
<defs>
<clipPath id="clip0_273_77">
<rect width="27.6444" height="27.6444" fill="white" transform="translate(224.611 29.3721)"/>
</clipPath>
</defs>
</svg>
