<svg width="128" height="128" viewBox="0 0 128 128" fill="none" xmlns="http://www.w3.org/2000/svg">
<path d="M0 20C0 8.95431 8.95431 0 20 0H108C119.046 0 128 8.95431 128 20V108C128 119.046 119.046 128 108 128H20C8.95431 128 0 119.046 0 108V20Z" fill="#65E3FF"/>
<path d="M118.4 104C118.4 112.837 111.237 120 102.4 120H64L64 9.6L106.4 9.6C113.027 9.6 118.4 14.9726 118.4 21.6L118.4 104Z" fill="white"/>
<path d="M110.441 85.2H82.9605C82.2574 85.2 81.4957 85.1219 80.6754 84.9656C79.8746 84.7898 79.0738 84.5262 78.273 84.1746C77.4918 83.823 76.7398 83.3738 76.0172 82.827C75.2945 82.2605 74.65 81.5867 74.0836 80.8055C73.5367 80.0047 73.0973 79.0867 72.7652 78.0516C72.4332 76.9969 72.2672 75.8152 72.2672 74.5066V53.8816C72.2672 53.1785 72.3453 52.4266 72.5016 51.6258C72.6773 50.8055 72.941 50.0047 73.2926 49.2234C73.6441 48.4227 74.1031 47.6609 74.6695 46.9383C75.2359 46.2156 75.9098 45.5809 76.691 45.034C77.4918 44.4676 78.4098 44.0184 79.4449 43.6863C80.4801 43.3543 81.652 43.1883 82.9605 43.1883H110.441V50.8055H82.9605C81.9645 50.8055 81.2027 51.0691 80.6754 51.5965C80.148 52.1238 79.8844 52.9051 79.8844 53.9402V74.5066C79.8844 75.4832 80.148 76.2449 80.6754 76.7918C81.2223 77.3191 81.984 77.5828 82.9605 77.5828H110.441V85.2Z" fill="#65E3FF"/>
<path d="M48.1648 68.032H24.1121V60.3563H48.1648V68.032ZM51.5926 85.2H24.1121C23.0574 85.2 21.9051 85.0145 20.6551 84.6434C19.4051 84.2723 18.243 83.6668 17.1688 82.827C16.1141 81.9676 15.2254 80.8641 14.5027 79.5164C13.7996 78.1492 13.448 76.4793 13.448 74.5066V47.0262C13.448 46.4988 13.5457 46.0008 13.741 45.532C13.9363 45.0633 14.2 44.6531 14.532 44.3016C14.8836 43.95 15.2938 43.6766 15.7625 43.4813C16.2313 43.2859 16.7391 43.1883 17.2859 43.1883H51.5926V50.8055H21.0652V74.5066C21.0652 75.5027 21.3289 76.2645 21.8563 76.7918C22.3836 77.3191 23.1551 77.5828 24.1707 77.5828H51.5926V85.2Z" fill="white"/>
</svg>
